<svg width="61" height="56" viewBox="0 0 61 56" fill="none" xmlns="http://www.w3.org/2000/svg">
<g id="christmas-present-gift-birthday-christmas_svgrepo.com">
<g id="Group">
<path id="Vector" d="M9.53125 31.5V49C9.53125 50.05 10.2937 50.75 11.4375 50.75H49.5625C50.7062 50.75 51.4688 50.05 51.4688 49V31.5H9.53125Z" fill="#003049"/>
<path id="Vector_2" d="M51.4688 15.75H9.53125C8.3875 15.75 7.625 16.45 7.625 17.5V26.25C7.625 27.3 8.3875 28 9.53125 28H51.4688C52.6125 28 53.375 27.3 53.375 26.25V17.5C53.375 16.45 52.6125 15.75 51.4688 15.75Z" fill="#003049"/>
</g>
<g id="Group_2">
<path id="Vector_3" d="M18.1094 15.75L17.9187 15.575C17.1562 14.35 16.9656 13.125 17.5375 12.075C18.1094 10.85 19.4437 10.5 20.0156 10.5H20.2062C21.35 10.5 22.875 11.025 23.8281 12.425L25.925 15.75H30.5L27.0687 10.675C25.5437 8.4 22.6844 7 19.825 7C17.3469 7.175 15.25 8.4 14.1062 10.5C13.1531 12.075 13.1531 14 13.725 15.75H18.1094Z" fill="#003049"/>
<path id="Vector_4" d="M35.075 15.75L37.1719 12.425C38.125 11.025 39.65 10.5 40.7937 10.5H40.9844C41.5562 10.5 42.8906 10.85 43.4625 12.075C44.0344 13.125 43.8438 14.35 43.0813 15.575C43.0813 15.75 42.8906 15.75 42.8906 15.75H47.0844C47.6562 14 47.6562 12.075 46.7031 10.5C45.5594 8.40003 43.4625 7.17503 40.9844 7.00003C38.125 6.82503 35.4563 8.22503 33.7406 10.675L30.5 15.75H35.075Z" fill="#003049"/>
</g>
</g>
</svg>
