<svg width="378" height="1683" viewBox="0 0 378 1683" fill="none" xmlns="http://www.w3.org/2000/svg">
<g opacity="0.34">
<mask id="mask0_9_21" style="mask-type:luminance" maskUnits="userSpaceOnUse" x="185" y="92" width="69" height="76">
<path d="M253.1 101.458L193.674 92.2501L185.39 158.301L244.816 167.509L253.1 101.458Z" fill="white"/>
</mask>
<g mask="url(#mask0_9_21)">
<path d="M222.697 102.358L217.174 146.392M217.174 146.392L215.793 157.401M217.174 146.392L223.567 155.8M217.174 146.392L208.71 153.498M229.78 106.261L221.316 113.367L214.924 103.959" stroke="url(#paint0_linear_9_21)" stroke-width="3.75" stroke-linecap="round"/>
<path d="M199.528 112.798L207.415 119.631M207.415 119.631L231.076 140.131M207.415 119.631L206.111 107.931M207.415 119.631L196.889 121.081M231.076 140.131L238.963 146.964M231.076 140.131L241.602 138.681M231.076 140.131L232.38 151.83" stroke="url(#paint1_linear_9_21)" stroke-width="3.75" stroke-linecap="round"/>
<path d="M242.413 119.443L233.146 123.618M233.146 123.618L205.343 136.143M233.146 123.618L237.279 112.761M233.146 123.618L242.914 128.212M205.343 136.143L196.075 140.318M205.343 136.143L195.575 131.549M205.343 136.143L201.209 147.001" stroke="url(#paint2_linear_9_21)" stroke-width="3.75" stroke-linecap="round"/>
</g>
<g clip-path="url(#clip0_9_21)">
<path d="M63.3615 50.7285L36.2128 83.3797M36.2128 83.3797L29.4256 91.5425M36.2128 83.3797L36.6304 95.1597M36.2128 83.3797L25.6144 83.8438M67.1727 58.4272L56.5743 58.8913L56.1567 47.1113" stroke="url(#paint3_linear_9_21)" stroke-width="3.75" stroke-linecap="round"/>
<path d="M38.9771 44.6004L41.9436 55.215M41.9436 55.215L50.843 87.0587M41.9436 55.215L46.8812 44.7811M41.9436 55.215L32.5563 49.7269M50.843 87.0587L53.8095 97.6733M50.843 87.0587L60.2304 92.5467M50.843 87.0587L45.9055 97.4927" stroke="url(#paint4_linear_9_21)" stroke-width="3.75" stroke-linecap="round"/>
<path d="M70.7766 77.2654L61.0229 74.8136M61.0229 74.8136L31.762 67.4582M61.0229 74.8136L69.9926 68.5217M61.0229 74.8136L66.6838 84.7834M31.762 67.4582L22.0083 65.0064M31.762 67.4582L26.1012 57.4884M31.762 67.4582L22.7923 73.7502" stroke="url(#paint5_linear_9_21)" stroke-width="3.75" stroke-linecap="round"/>
</g>
<g clip-path="url(#clip1_9_21)">
<mask id="mask1_9_21" style="mask-type:luminance" maskUnits="userSpaceOnUse" x="280" y="2" width="86" height="96">
<path d="M322.771 2.89353L280.997 50.7641L324.066 97.1958L365.84 49.3252L322.771 2.89353Z" fill="white"/>
</mask>
<g mask="url(#mask1_9_21)">
<path d="M305.473 30.6981L334.185 61.6526M334.185 61.6526L341.364 69.3912M334.185 61.6526L344.791 61.4727M334.185 61.6526L334.347 73.4404M312.489 26.6489L312.651 38.4367L302.046 38.6166" stroke="url(#paint6_linear_9_21)" stroke-width="3.75" stroke-linecap="round"/>
<path d="M299.373 57.6454L308.992 54.6052M308.992 54.6052L337.847 45.4846M308.992 54.6052L299.726 48.8671M308.992 54.6052L303.829 64.9037M337.847 45.4846L347.466 42.4444M337.847 45.4846L343.01 35.1861M337.847 45.4846L347.113 51.2227" stroke="url(#paint7_linear_9_21)" stroke-width="3.75" stroke-linecap="round"/>
<path d="M329.52 23.0989L327.079 33.8778M327.079 33.8778L319.758 66.2141M327.079 33.8778L321.637 23.7591M327.079 33.8778L336.183 27.828M319.758 66.2141L317.317 76.9929M319.758 66.2141L310.654 72.2637M319.758 66.2141L325.201 76.3328" stroke="url(#paint8_linear_9_21)" stroke-width="3.75" stroke-linecap="round"/>
</g>
</g>
<g clip-path="url(#clip2_9_21)">
<path d="M148.795 11.8547L156.474 55.4876M156.474 55.4876L158.393 66.3958M156.474 55.4876L165.274 62.0686M156.474 55.4876L150.553 65.2689M156.636 12.9816L150.715 22.7629L141.915 16.1819" stroke="url(#paint9_linear_9_21)" stroke-width="3.75" stroke-linecap="round"/>
<path d="M129.948 30.1102L139.407 33.7167M139.407 33.7167L167.783 44.5359M139.407 33.7167L134.746 23.1267M139.407 33.7167L129.879 38.897M167.783 44.5359L177.242 48.1423M167.783 44.5359L177.311 39.3554M167.783 44.5359L172.444 55.1259" stroke="url(#paint10_linear_9_21)" stroke-width="3.75" stroke-linecap="round"/>
<path d="M172.442 20.872L164.903 28.1738M164.903 28.1738L142.285 50.0792M164.903 28.1738L165.631 16.4124M164.903 28.1738L175.485 28.9825M142.285 50.0792L134.745 57.381M142.285 50.0792L131.703 49.2705M142.285 50.0792L141.557 61.8406" stroke="url(#paint11_linear_9_21)" stroke-width="3.75" stroke-linecap="round"/>
</g>
<mask id="mask2_9_21" style="mask-type:luminance" maskUnits="userSpaceOnUse" x="104" y="219" width="74" height="83">
<path d="M118.605 301.871L177.462 285.112L163.462 219.877L104.605 236.637L118.605 301.871Z" fill="white"/>
</mask>
<g mask="url(#mask2_9_21)">
<path d="M146.867 288.055L137.534 244.565M137.534 244.565L135.201 233.693M137.534 244.565L128.427 238.506M137.534 244.565L143.141 234.316M138.927 287.432L144.534 277.183L153.641 283.242" stroke="url(#paint12_linear_9_21)" stroke-width="3.75" stroke-linecap="round"/>
<path d="M165.188 268.416L155.526 265.399M155.526 265.399L126.54 256.347M155.526 265.399L160.609 275.771M155.526 265.399L164.935 259.552M126.54 256.347L116.878 253.33M126.54 256.347L117.131 262.194M126.54 256.347L121.457 245.975" stroke="url(#paint13_linear_9_21)" stroke-width="3.75" stroke-linecap="round"/>
<path d="M122.713 280.511L130.041 272.656M130.041 272.656L152.027 249.09M130.041 272.656L129.739 284.562M130.041 272.656L119.351 272.533M152.027 249.09L159.356 241.235M152.027 249.09L162.718 249.213M152.027 249.09L152.329 237.184" stroke="url(#paint14_linear_9_21)" stroke-width="3.75" stroke-linecap="round"/>
</g>
<g clip-path="url(#clip3_9_21)">
<path d="M313.563 268.284L328.297 226.198M328.297 226.198L331.981 215.676M328.297 226.198L324.02 215.372M328.297 226.198L338.099 221.241M307.444 262.719L317.246 257.762L321.523 268.588" stroke="url(#paint15_linear_9_21)" stroke-width="3.75" stroke-linecap="round"/>
<path d="M338.489 263.602L332.202 254.953M332.202 254.953L313.341 229.005M332.202 254.953L331.005 266.806M332.202 254.953L342.829 256.073M313.341 229.005L307.054 220.356M313.341 229.005L302.713 227.885M313.341 229.005L314.538 217.151" stroke="url(#paint16_linear_9_21)" stroke-width="3.75" stroke-linecap="round"/>
<path d="M297.846 246.66L307.817 244.788M307.817 244.788L337.728 239.171M307.817 244.788L301.466 254.493M307.817 244.788L299.212 237.891M337.728 239.171L347.699 237.298M337.728 239.171L346.333 246.068M337.728 239.171L344.079 229.465" stroke="url(#paint17_linear_9_21)" stroke-width="3.75" stroke-linecap="round"/>
</g>
<mask id="mask3_9_21" style="mask-type:luminance" maskUnits="userSpaceOnUse" x="29" y="336" width="81" height="88">
<path d="M85.6645 423.676L109.118 361.131L53.3503 336.139L29.8966 398.684L85.6645 423.676Z" fill="white"/>
</mask>
<g mask="url(#mask3_9_21)">
<path d="M92.744 390.321L55.5654 373.659M55.5654 373.659L46.2707 369.494M55.5654 373.659L45.6627 378.353M55.5654 373.659L51.5261 362.717M87.4886 397.098L83.4493 386.155L93.352 381.461" stroke="url(#paint18_linear_9_21)" stroke-width="3.75" stroke-linecap="round"/>
<path d="M89.5875 362.545L81.555 369.49M81.555 369.49L57.4573 390.325M81.555 369.49L92.1506 370.896M81.555 369.49L83.0082 357.667M57.4573 390.325L49.4248 397.27M57.4573 390.325L56.0041 402.148M57.4573 390.325L46.8617 388.919" stroke="url(#paint19_linear_9_21)" stroke-width="3.75" stroke-linecap="round"/>
<path d="M72.6618 407.682L71.3997 396.572M71.3997 396.572L67.6135 363.241M71.3997 396.572L79.8492 403.701M71.3997 396.572L64.8434 406.108M67.6135 363.241L66.3514 352.131M67.6135 363.241L74.1699 353.705M67.6135 363.241L59.1639 356.112" stroke="url(#paint20_linear_9_21)" stroke-width="3.75" stroke-linecap="round"/>
</g>
<mask id="mask4_9_21" style="mask-type:luminance" maskUnits="userSpaceOnUse" x="22" y="143" width="80" height="88">
<path d="M78.0928 230.599L101.546 168.055L45.7786 143.063L22.3249 205.607L78.0928 230.599Z" fill="white"/>
</mask>
<g mask="url(#mask4_9_21)">
<path d="M85.1722 197.245L47.9937 180.583M47.9937 180.583L38.699 176.418M47.9937 180.583L38.0909 185.277M47.9937 180.583L43.9544 169.641M79.9169 204.021L75.8776 193.079L85.7803 188.385" stroke="url(#paint21_linear_9_21)" stroke-width="3.75" stroke-linecap="round"/>
<path d="M82.0158 169.469L73.9832 176.414M73.9832 176.414L49.8856 197.249M73.9832 176.414L84.5789 177.82M73.9832 176.414L75.4365 164.591M49.8856 197.249L41.8531 204.193M49.8856 197.249L48.4324 209.072M49.8856 197.249L39.29 195.843" stroke="url(#paint22_linear_9_21)" stroke-width="3.75" stroke-linecap="round"/>
<path d="M65.0901 214.606L63.828 203.495M63.828 203.495L60.0418 170.165M63.828 203.495L72.2775 210.624M63.828 203.495L57.2717 213.032M60.0418 170.165L58.7797 159.055M60.0418 170.165L66.5982 160.629M60.0418 170.165L51.5922 163.036" stroke="url(#paint23_linear_9_21)" stroke-width="3.75" stroke-linecap="round"/>
</g>
<g clip-path="url(#clip4_9_21)">
<path d="M246.131 341.057L224.53 303.576M224.53 303.576L219.129 294.206M224.53 303.576L214.093 301.184M224.53 303.576L226.866 291.912M238.395 343.351L240.731 331.687L251.167 334.079" stroke="url(#paint24_linear_9_21)" stroke-width="3.75" stroke-linecap="round"/>
<path d="M257.815 315.961L247.741 316.629M247.741 316.629L217.517 318.633M247.741 316.629L255.611 324.532M247.741 316.629L254.982 307.724M217.517 318.633L207.443 319.301M217.517 318.633L210.276 327.538M217.517 318.633L209.647 310.73" stroke="url(#paint25_linear_9_21)" stroke-width="3.75" stroke-linecap="round"/>
<path d="M220.945 342.726L225.619 332.688M225.619 332.688L239.641 302.573M225.619 332.688L228.814 343.985M225.619 332.688L215.412 336.448M239.641 302.573L244.315 292.534M239.641 302.573L249.848 298.812M239.641 302.573L236.446 291.276" stroke="url(#paint26_linear_9_21)" stroke-width="3.75" stroke-linecap="round"/>
</g>
<mask id="mask5_9_21" style="mask-type:luminance" maskUnits="userSpaceOnUse" x="173" y="503" width="69" height="76">
<path d="M241.706 512.71L182.281 503.502L173.997 569.553L233.422 578.761L241.706 512.71Z" fill="white"/>
</mask>
<g mask="url(#mask5_9_21)">
<path d="M211.303 513.611L205.78 557.644M205.78 557.644L204.4 568.653M205.78 557.644L212.173 567.052M205.78 557.644L197.317 564.75M218.386 517.514L209.923 524.619L203.53 515.212" stroke="url(#paint27_linear_9_21)" stroke-width="3.75" stroke-linecap="round"/>
<path d="M188.135 524.05L196.022 530.883M196.022 530.883L219.682 551.383M196.022 530.883L194.717 519.183M196.022 530.883L185.496 532.333M219.682 551.383L227.569 558.216M219.682 551.383L230.209 549.933M219.682 551.383L220.987 563.083" stroke="url(#paint28_linear_9_21)" stroke-width="3.75" stroke-linecap="round"/>
<path d="M231.02 530.695L221.752 534.87M221.752 534.87L193.949 547.396M221.752 534.87L225.886 524.013M221.752 534.87L231.52 539.464M193.949 547.396L184.682 551.571M193.949 547.396L184.181 542.801M193.949 547.396L189.816 558.253" stroke="url(#paint29_linear_9_21)" stroke-width="3.75" stroke-linecap="round"/>
</g>
<g clip-path="url(#clip5_9_21)">
<path d="M272.362 415.735L245.213 448.387M245.213 448.387L238.426 456.549M245.213 448.387L245.63 460.167M245.213 448.387L234.614 448.851M276.173 423.434L265.574 423.898L265.157 412.118" stroke="url(#paint30_linear_9_21)" stroke-width="3.75" stroke-linecap="round"/>
<path d="M247.977 409.607L250.944 420.222M250.944 420.222L259.843 452.066M250.944 420.222L255.881 409.788M250.944 420.222L241.556 414.734M259.843 452.066L262.81 462.68M259.843 452.066L269.23 457.554M259.843 452.066L254.906 462.5" stroke="url(#paint31_linear_9_21)" stroke-width="3.75" stroke-linecap="round"/>
<path d="M279.777 442.272L270.023 439.82M270.023 439.82L240.762 432.465M270.023 439.82L278.993 433.529M270.023 439.82L275.684 449.79M240.762 432.465L231.008 430.013M240.762 432.465L235.101 422.495M240.762 432.465L231.792 438.757" stroke="url(#paint32_linear_9_21)" stroke-width="3.75" stroke-linecap="round"/>
</g>
<g clip-path="url(#clip6_9_21)">
<mask id="mask6_9_21" style="mask-type:luminance" maskUnits="userSpaceOnUse" x="290" y="447" width="86" height="95">
<path d="M332.771 447.49L290.997 495.361L334.066 541.793L375.84 493.922L332.771 447.49Z" fill="white"/>
</mask>
<g mask="url(#mask6_9_21)">
<path d="M315.473 475.295L344.185 506.25M344.185 506.25L351.364 513.988M344.185 506.25L354.791 506.07M344.185 506.25L344.347 518.037M322.489 471.246L322.651 483.034L312.046 483.213" stroke="url(#paint33_linear_9_21)" stroke-width="3.75" stroke-linecap="round"/>
<path d="M309.373 502.242L318.992 499.202M318.992 499.202L347.847 490.082M318.992 499.202L309.726 493.464M318.992 499.202L313.829 509.501M347.847 490.082L357.466 487.041M347.847 490.082L353.01 479.783M347.847 490.082L357.113 495.82" stroke="url(#paint34_linear_9_21)" stroke-width="3.75" stroke-linecap="round"/>
<path d="M339.52 467.696L337.079 478.475M337.079 478.475L329.758 510.811M337.079 478.475L331.637 468.356M337.079 478.475L346.183 472.425M329.758 510.811L327.317 521.59M329.758 510.811L320.654 516.861M329.758 510.811L335.201 520.93" stroke="url(#paint35_linear_9_21)" stroke-width="3.75" stroke-linecap="round"/>
</g>
</g>
<g clip-path="url(#clip7_9_21)">
<path d="M90.4019 483.127L98.08 526.76M98.08 526.76L99.9995 537.669M98.08 526.76L106.88 533.341M98.08 526.76L92.1591 536.542M98.2423 484.254L92.3214 494.036L83.5213 487.455" stroke="url(#paint36_linear_9_21)" stroke-width="3.75" stroke-linecap="round"/>
<path d="M71.5542 501.383L81.0132 504.989M81.0132 504.989L109.39 515.809M81.0132 504.989L76.3524 494.399M81.0132 504.989L71.4854 510.17M109.39 515.809L118.849 519.415M109.39 515.809L118.918 510.628M109.39 515.809L114.051 526.399" stroke="url(#paint37_linear_9_21)" stroke-width="3.75" stroke-linecap="round"/>
<path d="M114.049 492.145L106.509 499.447M106.509 499.447L83.8912 521.352M106.509 499.447L107.237 487.685M106.509 499.447L117.091 500.255M83.8912 521.352L76.3518 528.654M83.8912 521.352L73.3096 520.543M83.8912 521.352L83.1637 533.113" stroke="url(#paint38_linear_9_21)" stroke-width="3.75" stroke-linecap="round"/>
</g>
<mask id="mask7_9_21" style="mask-type:luminance" maskUnits="userSpaceOnUse" x="114" y="664" width="74" height="83">
<path d="M128.605 746.468L187.462 729.709L173.462 664.474L114.605 681.234L128.605 746.468Z" fill="white"/>
</mask>
<g mask="url(#mask7_9_21)">
<path d="M156.867 732.652L147.534 689.162M147.534 689.162L145.201 678.29M147.534 689.162L138.427 683.103M147.534 689.162L153.141 678.913M148.927 732.029L154.534 721.78L163.641 727.839" stroke="url(#paint39_linear_9_21)" stroke-width="3.75" stroke-linecap="round"/>
<path d="M175.188 713.013L165.526 709.996M165.526 709.996L136.54 700.944M165.526 709.996L170.609 720.368M165.526 709.996L174.935 704.149M136.54 700.944L126.878 697.927M136.54 700.944L127.131 706.791M136.54 700.944L131.457 690.572" stroke="url(#paint40_linear_9_21)" stroke-width="3.75" stroke-linecap="round"/>
<path d="M132.713 725.108L140.041 717.253M140.041 717.253L162.027 693.687M140.041 717.253L139.739 729.159M140.041 717.253L129.351 717.13M162.027 693.687L169.356 685.832M162.027 693.687L172.718 693.81M162.027 693.687L162.329 681.781" stroke="url(#paint41_linear_9_21)" stroke-width="3.75" stroke-linecap="round"/>
</g>
<g clip-path="url(#clip8_9_21)">
<path d="M272 680.928L286.735 638.841M286.735 638.841L290.418 628.32M286.735 638.841L282.458 628.016M286.735 638.841L296.537 633.885M265.882 675.363L275.684 670.406L279.961 681.232" stroke="url(#paint42_linear_9_21)" stroke-width="3.75" stroke-linecap="round"/>
<path d="M296.927 676.245L290.64 667.596M290.64 667.596L271.779 641.648M290.64 667.596L289.442 679.45M290.64 667.596L301.267 668.716M271.779 641.648L265.492 632.999M271.779 641.648L261.151 640.528M271.779 641.648L272.976 629.795" stroke="url(#paint43_linear_9_21)" stroke-width="3.75" stroke-linecap="round"/>
<path d="M256.284 659.303L266.255 657.431M266.255 657.431L296.166 651.814M266.255 657.431L259.904 667.137M266.255 657.431L257.649 650.534M296.166 651.814L306.137 649.942M296.166 651.814L304.771 658.711M296.166 651.814L302.517 642.109" stroke="url(#paint44_linear_9_21)" stroke-width="3.75" stroke-linecap="round"/>
</g>
<mask id="mask8_9_21" style="mask-type:luminance" maskUnits="userSpaceOnUse" x="35" y="742" width="81" height="88">
<path d="M91.6993 829.694L115.153 767.149L59.3851 742.157L35.9314 804.702L91.6993 829.694Z" fill="white"/>
</mask>
<g mask="url(#mask8_9_21)">
<path d="M98.7788 796.339L61.6002 779.677M61.6002 779.677L52.3055 775.512M61.6002 779.677L51.6975 784.371M61.6002 779.677L57.5609 768.735M93.5234 803.116L89.4841 792.173L99.3868 787.479" stroke="url(#paint45_linear_9_21)" stroke-width="3.75" stroke-linecap="round"/>
<path d="M95.6223 768.564L87.5897 775.508M87.5897 775.508L63.4921 796.343M87.5897 775.508L98.1854 776.914M87.5897 775.508L89.043 763.685M63.4921 796.343L55.4596 803.288M63.4921 796.343L62.0389 808.166M63.4921 796.343L52.8965 794.937" stroke="url(#paint46_linear_9_21)" stroke-width="3.75" stroke-linecap="round"/>
<path d="M78.6966 813.7L77.4345 802.59M77.4345 802.59L73.6483 769.259M77.4345 802.59L85.884 809.719M77.4345 802.59L70.8782 812.126M73.6483 769.259L72.3862 758.149M73.6483 769.259L80.2047 759.723M73.6483 769.259L65.1987 762.13" stroke="url(#paint47_linear_9_21)" stroke-width="3.75" stroke-linecap="round"/>
</g>
<mask id="mask9_9_21" style="mask-type:luminance" maskUnits="userSpaceOnUse" x="32" y="587" width="80" height="89">
<path d="M88.0928 675.196L111.546 612.652L55.7786 587.659L32.3249 650.204L88.0928 675.196Z" fill="white"/>
</mask>
<g mask="url(#mask9_9_21)">
<path d="M95.1722 641.841L57.9937 625.18M57.9937 625.18L48.699 621.015M57.9937 625.18L48.0909 629.874M57.9937 625.18L53.9544 614.238M89.9169 648.618L85.8776 637.676L95.7803 632.982" stroke="url(#paint48_linear_9_21)" stroke-width="3.75" stroke-linecap="round"/>
<path d="M92.0158 614.066L83.9832 621.011M83.9832 621.011L59.8856 641.846M83.9832 621.011L94.5789 622.417M83.9832 621.011L85.4365 609.188M59.8856 641.846L51.8531 648.79M59.8856 641.846L58.4324 653.669M59.8856 641.846L49.29 640.44" stroke="url(#paint49_linear_9_21)" stroke-width="3.75" stroke-linecap="round"/>
<path d="M75.0901 659.202L73.828 648.092M73.828 648.092L70.0418 614.762M73.828 648.092L82.2775 655.221M73.828 648.092L67.2717 657.629M70.0418 614.762L68.7797 603.651M70.0418 614.762L76.5982 605.225M70.0418 614.762L61.5922 607.632" stroke="url(#paint50_linear_9_21)" stroke-width="3.75" stroke-linecap="round"/>
</g>
<g clip-path="url(#clip9_9_21)">
<path d="M292.247 805.889L270.646 768.407M270.646 768.407L265.245 759.037M270.646 768.407L260.209 766.016M270.646 768.407L272.982 756.744M284.511 808.182L286.847 796.519L297.283 798.91" stroke="url(#paint51_linear_9_21)" stroke-width="3.75" stroke-linecap="round"/>
<path d="M303.931 780.792L293.857 781.46M293.857 781.46L263.634 783.464M293.857 781.46L301.727 789.364M293.857 781.46L301.098 772.555M263.634 783.464L253.559 784.132M263.634 783.464L256.392 792.37M263.634 783.464L255.763 775.561" stroke="url(#paint52_linear_9_21)" stroke-width="3.75" stroke-linecap="round"/>
<path d="M267.061 807.558L271.735 797.519M271.735 797.519L285.757 767.404M271.735 797.519L274.93 808.816M271.735 797.519L261.529 801.28M285.757 767.404L290.431 757.366M285.757 767.404L295.964 763.644M285.757 767.404L282.562 756.107" stroke="url(#paint53_linear_9_21)" stroke-width="3.75" stroke-linecap="round"/>
</g>
<mask id="mask10_9_21" style="mask-type:luminance" maskUnits="userSpaceOnUse" x="181" y="926" width="69" height="77">
<path d="M249.1 936.189L189.674 926.981L181.39 993.032L240.816 1002.24L249.1 936.189Z" fill="white"/>
</mask>
<g mask="url(#mask10_9_21)">
<path d="M218.697 937.089L213.174 981.123M213.174 981.123L211.793 992.131M213.174 981.123L219.567 990.53M213.174 981.123L204.71 988.228M225.78 940.992L217.316 948.098L210.924 938.69" stroke="url(#paint54_linear_9_21)" stroke-width="3.75" stroke-linecap="round"/>
<path d="M195.528 947.528L203.415 954.362M203.415 954.362L227.076 974.861M203.415 954.362L202.111 942.662M203.415 954.362L192.889 955.811M227.076 974.861L234.963 981.695M227.076 974.861L237.602 973.412M227.076 974.861L228.38 986.561" stroke="url(#paint55_linear_9_21)" stroke-width="3.75" stroke-linecap="round"/>
<path d="M238.413 954.173L229.146 958.349M229.146 958.349L201.343 970.874M229.146 958.349L233.279 947.491M229.146 958.349L238.914 962.943M201.343 970.874L192.075 975.049M201.343 970.874L191.575 966.28M201.343 970.874L197.209 981.731" stroke="url(#paint56_linear_9_21)" stroke-width="3.75" stroke-linecap="round"/>
</g>
<g clip-path="url(#clip10_9_21)">
<path d="M59.3615 885.459L32.2128 918.11M32.2128 918.11L25.4256 926.273M32.2128 918.11L32.6304 929.89M32.2128 918.11L21.6144 918.575M63.1727 893.158L52.5743 893.622L52.1567 881.842" stroke="url(#paint57_linear_9_21)" stroke-width="3.75" stroke-linecap="round"/>
<path d="M34.9771 879.331L37.9436 889.946M37.9436 889.946L46.843 921.789M37.9436 889.946L42.8812 879.512M37.9436 889.946L28.5563 884.458M46.843 921.789L49.8095 932.404M46.843 921.789L56.2304 927.277M46.843 921.789L41.9055 932.223" stroke="url(#paint58_linear_9_21)" stroke-width="3.75" stroke-linecap="round"/>
<path d="M66.7766 911.996L57.0229 909.544M57.0229 909.544L27.762 902.189M57.0229 909.544L65.9926 903.252M57.0229 909.544L62.6838 919.514M27.762 902.189L18.0083 899.737M27.762 902.189L22.1012 892.219M27.762 902.189L18.7923 908.481" stroke="url(#paint59_linear_9_21)" stroke-width="3.75" stroke-linecap="round"/>
</g>
<g clip-path="url(#clip11_9_21)">
<mask id="mask11_9_21" style="mask-type:luminance" maskUnits="userSpaceOnUse" x="276" y="837" width="86" height="95">
<path d="M318.771 837.624L276.997 885.495L320.066 931.927L361.84 884.056L318.771 837.624Z" fill="white"/>
</mask>
<g mask="url(#mask11_9_21)">
<path d="M301.473 865.429L330.185 896.383M330.185 896.383L337.364 904.122M330.185 896.383L340.791 896.203M330.185 896.383L330.347 908.171M308.489 861.38L308.651 873.167L298.046 873.347" stroke="url(#paint60_linear_9_21)" stroke-width="3.75" stroke-linecap="round"/>
<path d="M295.373 892.376L304.992 889.336M304.992 889.336L333.847 880.215M304.992 889.336L295.726 883.598M304.992 889.336L299.829 899.634M333.847 880.215L343.466 877.175M333.847 880.215L339.01 869.917M333.847 880.215L343.113 885.953" stroke="url(#paint61_linear_9_21)" stroke-width="3.75" stroke-linecap="round"/>
<path d="M325.52 857.83L323.079 868.608M323.079 868.608L315.758 900.945M323.079 868.608L317.637 858.49M323.079 868.608L332.183 862.559M315.758 900.945L313.317 911.724M315.758 900.945L306.654 906.994M315.758 900.945L321.201 911.063" stroke="url(#paint62_linear_9_21)" stroke-width="3.75" stroke-linecap="round"/>
</g>
</g>
<g clip-path="url(#clip12_9_21)">
<path d="M144.795 846.585L152.474 890.218M152.474 890.218L154.393 901.127M152.474 890.218L161.274 896.799M152.474 890.218L146.553 900M152.636 847.712L146.715 857.494L137.915 850.913" stroke="url(#paint63_linear_9_21)" stroke-width="3.75" stroke-linecap="round"/>
<path d="M125.948 864.841L135.407 868.447M135.407 868.447L163.783 879.267M135.407 868.447L130.746 857.857M135.407 868.447L125.879 873.628M163.783 879.267L173.242 882.873M163.783 879.267L173.311 874.086M163.783 879.267L168.444 889.857" stroke="url(#paint64_linear_9_21)" stroke-width="3.75" stroke-linecap="round"/>
<path d="M168.442 855.603L160.903 862.905M160.903 862.905L138.285 884.81M160.903 862.905L161.631 851.143M160.903 862.905L171.485 863.713M138.285 884.81L130.745 892.112M138.285 884.81L127.703 884.001M138.285 884.81L137.557 896.571" stroke="url(#paint65_linear_9_21)" stroke-width="3.75" stroke-linecap="round"/>
</g>
<mask id="mask12_9_21" style="mask-type:luminance" maskUnits="userSpaceOnUse" x="100" y="1054" width="74" height="83">
<path d="M114.605 1136.6L173.462 1119.84L159.462 1054.61L100.605 1071.37L114.605 1136.6Z" fill="white"/>
</mask>
<g mask="url(#mask12_9_21)">
<path d="M142.867 1122.79L133.534 1079.3M133.534 1079.3L131.201 1068.42M133.534 1079.3L124.427 1073.24M133.534 1079.3L139.141 1069.05M134.927 1122.16L140.534 1111.91L149.641 1117.97" stroke="url(#paint66_linear_9_21)" stroke-width="3.75" stroke-linecap="round"/>
<path d="M161.188 1103.15L151.526 1100.13M151.526 1100.13L122.54 1091.08M151.526 1100.13L156.609 1110.5M151.526 1100.13L160.935 1094.28M122.54 1091.08L112.878 1088.06M122.54 1091.08L113.131 1096.92M122.54 1091.08L117.457 1080.71" stroke="url(#paint67_linear_9_21)" stroke-width="3.75" stroke-linecap="round"/>
<path d="M118.713 1115.24L126.041 1107.39M126.041 1107.39L148.027 1083.82M126.041 1107.39L125.739 1119.29M126.041 1107.39L115.351 1107.26M148.027 1083.82L155.356 1075.97M148.027 1083.82L158.718 1083.94M148.027 1083.82L148.329 1071.91" stroke="url(#paint68_linear_9_21)" stroke-width="3.75" stroke-linecap="round"/>
</g>
<g clip-path="url(#clip13_9_21)">
<path d="M309.563 1103.01L324.297 1060.93M324.297 1060.93L327.981 1050.41M324.297 1060.93L320.02 1050.1M324.297 1060.93L334.099 1055.97M303.444 1097.45L313.246 1092.49L317.523 1103.32" stroke="url(#paint69_linear_9_21)" stroke-width="3.75" stroke-linecap="round"/>
<path d="M334.489 1098.33L328.202 1089.68M328.202 1089.68L309.341 1063.74M328.202 1089.68L327.005 1101.54M328.202 1089.68L338.829 1090.8M309.341 1063.74L303.054 1055.09M309.341 1063.74L298.713 1062.62M309.341 1063.74L310.538 1051.88" stroke="url(#paint70_linear_9_21)" stroke-width="3.75" stroke-linecap="round"/>
<path d="M293.846 1081.39L303.817 1079.52M303.817 1079.52L333.728 1073.9M303.817 1079.52L297.466 1089.22M303.817 1079.52L295.212 1072.62M333.728 1073.9L343.699 1072.03M333.728 1073.9L342.333 1080.8M333.728 1073.9L340.079 1064.2" stroke="url(#paint71_linear_9_21)" stroke-width="3.75" stroke-linecap="round"/>
</g>
<mask id="mask13_9_21" style="mask-type:luminance" maskUnits="userSpaceOnUse" x="25" y="1170" width="81" height="89">
<path d="M81.6645 1258.41L105.118 1195.86L49.3503 1170.87L25.8966 1233.41L81.6645 1258.41Z" fill="white"/>
</mask>
<g mask="url(#mask13_9_21)">
<path d="M88.744 1225.05L51.5654 1208.39M51.5654 1208.39L42.2707 1204.22M51.5654 1208.39L41.6627 1213.08M51.5654 1208.39L47.5261 1197.45M83.4886 1231.83L79.4493 1220.89L89.352 1216.19" stroke="url(#paint72_linear_9_21)" stroke-width="3.75" stroke-linecap="round"/>
<path d="M85.5875 1197.28L77.555 1204.22M77.555 1204.22L53.4573 1225.06M77.555 1204.22L88.1506 1205.63M77.555 1204.22L79.0082 1192.4M53.4573 1225.06L45.4248 1232M53.4573 1225.06L52.0041 1236.88M53.4573 1225.06L42.8617 1223.65" stroke="url(#paint73_linear_9_21)" stroke-width="3.75" stroke-linecap="round"/>
<path d="M68.6618 1242.41L67.3997 1231.3M67.3997 1231.3L63.6135 1197.97M67.3997 1231.3L75.8492 1238.43M67.3997 1231.3L60.8434 1240.84M63.6135 1197.97L62.3514 1186.86M63.6135 1197.97L70.1699 1188.44M63.6135 1197.97L55.1639 1190.84" stroke="url(#paint74_linear_9_21)" stroke-width="3.75" stroke-linecap="round"/>
</g>
<mask id="mask14_9_21" style="mask-type:luminance" maskUnits="userSpaceOnUse" x="18" y="977" width="80" height="89">
<path d="M74.0928 1065.33L97.5464 1002.79L41.7786 977.793L18.3249 1040.34L74.0928 1065.33Z" fill="white"/>
</mask>
<g mask="url(#mask14_9_21)">
<path d="M81.1722 1031.98L43.9937 1015.31M43.9937 1015.31L34.699 1011.15M43.9937 1015.31L34.0909 1020.01M43.9937 1015.31L39.9544 1004.37M75.9169 1038.75L71.8776 1027.81L81.7803 1023.12" stroke="url(#paint75_linear_9_21)" stroke-width="3.75" stroke-linecap="round"/>
<path d="M78.0158 1004.2L69.9832 1011.14M69.9832 1011.14L45.8856 1031.98M69.9832 1011.14L80.5789 1012.55M69.9832 1011.14L71.4365 999.322M45.8856 1031.98L37.8531 1038.92M45.8856 1031.98L44.4324 1043.8M45.8856 1031.98L35.29 1030.57" stroke="url(#paint76_linear_9_21)" stroke-width="3.75" stroke-linecap="round"/>
<path d="M61.0901 1049.34L59.828 1038.23M59.828 1038.23L56.0418 1004.9M59.828 1038.23L68.2775 1045.36M59.828 1038.23L53.2717 1047.76M56.0418 1004.9L54.7797 993.785M56.0418 1004.9L62.5982 995.359M56.0418 1004.9L47.5922 997.766" stroke="url(#paint77_linear_9_21)" stroke-width="3.75" stroke-linecap="round"/>
</g>
<g clip-path="url(#clip14_9_21)">
<path d="M242.131 1175.79L220.53 1138.31M220.53 1138.31L215.129 1128.94M220.53 1138.31L210.093 1135.91M220.53 1138.31L222.866 1126.64M234.395 1178.08L236.731 1166.42L247.167 1168.81" stroke="url(#paint78_linear_9_21)" stroke-width="3.75" stroke-linecap="round"/>
<path d="M253.815 1150.69L243.741 1151.36M243.741 1151.36L213.517 1153.36M243.741 1151.36L251.611 1159.26M243.741 1151.36L250.982 1142.45M213.517 1153.36L203.443 1154.03M213.517 1153.36L206.276 1162.27M213.517 1153.36L205.647 1145.46" stroke="url(#paint79_linear_9_21)" stroke-width="3.75" stroke-linecap="round"/>
<path d="M216.945 1177.46L221.619 1167.42M221.619 1167.42L235.641 1137.3M221.619 1167.42L224.814 1178.72M221.619 1167.42L211.412 1171.18M235.641 1137.3L240.315 1127.26M235.641 1137.3L245.848 1133.54M235.641 1137.3L232.446 1126.01" stroke="url(#paint80_linear_9_21)" stroke-width="3.75" stroke-linecap="round"/>
</g>
<mask id="mask15_9_21" style="mask-type:luminance" maskUnits="userSpaceOnUse" x="169" y="1338" width="69" height="76">
<path d="M237.706 1347.44L178.281 1338.23L169.997 1404.28L229.422 1413.49L237.706 1347.44Z" fill="white"/>
</mask>
<g mask="url(#mask15_9_21)">
<path d="M207.303 1348.34L201.78 1392.38M201.78 1392.38L200.4 1403.38M201.78 1392.38L208.173 1401.78M201.78 1392.38L193.317 1399.48M214.386 1352.24L205.923 1359.35L199.53 1349.94" stroke="url(#paint81_linear_9_21)" stroke-width="3.75" stroke-linecap="round"/>
<path d="M184.135 1358.78L192.022 1365.61M192.022 1365.61L215.682 1386.11M192.022 1365.61L190.717 1353.91M192.022 1365.61L181.496 1367.06M215.682 1386.11L223.569 1392.95M215.682 1386.11L226.209 1384.66M215.682 1386.11L216.987 1397.81" stroke="url(#paint82_linear_9_21)" stroke-width="3.75" stroke-linecap="round"/>
<path d="M227.02 1365.43L217.752 1369.6M217.752 1369.6L189.949 1382.13M217.752 1369.6L221.886 1358.74M217.752 1369.6L227.52 1374.19M189.949 1382.13L180.682 1386.3M189.949 1382.13L180.181 1377.53M189.949 1382.13L185.816 1392.98" stroke="url(#paint83_linear_9_21)" stroke-width="3.75" stroke-linecap="round"/>
</g>
<g clip-path="url(#clip15_9_21)">
<path d="M268.362 1250.47L241.213 1283.12M241.213 1283.12L234.426 1291.28M241.213 1283.12L241.63 1294.9M241.213 1283.12L230.614 1283.58M272.173 1258.16L261.574 1258.63L261.157 1246.85" stroke="url(#paint84_linear_9_21)" stroke-width="3.75" stroke-linecap="round"/>
<path d="M243.977 1244.34L246.944 1254.95M246.944 1254.95L255.843 1286.8M246.944 1254.95L251.881 1244.52M246.944 1254.95L237.556 1249.46M255.843 1286.8L258.81 1297.41M255.843 1286.8L265.23 1292.28M255.843 1286.8L250.906 1297.23" stroke="url(#paint85_linear_9_21)" stroke-width="3.75" stroke-linecap="round"/>
<path d="M275.777 1277L266.023 1274.55M266.023 1274.55L236.762 1267.2M266.023 1274.55L274.993 1268.26M266.023 1274.55L271.684 1284.52M236.762 1267.2L227.008 1264.74M236.762 1267.2L231.101 1257.23M236.762 1267.2L227.792 1273.49" stroke="url(#paint86_linear_9_21)" stroke-width="3.75" stroke-linecap="round"/>
</g>
<g clip-path="url(#clip16_9_21)">
<mask id="mask16_9_21" style="mask-type:luminance" maskUnits="userSpaceOnUse" x="286" y="1282" width="86" height="95">
<path d="M328.771 1282.22L286.997 1330.09L330.066 1376.52L371.84 1328.65L328.771 1282.22Z" fill="white"/>
</mask>
<g mask="url(#mask16_9_21)">
<path d="M311.473 1310.03L340.185 1340.98M340.185 1340.98L347.364 1348.72M340.185 1340.98L350.791 1340.8M340.185 1340.98L340.347 1352.77M318.489 1305.98L318.651 1317.76L308.046 1317.94" stroke="url(#paint87_linear_9_21)" stroke-width="3.75" stroke-linecap="round"/>
<path d="M305.373 1336.97L314.992 1333.93M314.992 1333.93L343.847 1324.81M314.992 1333.93L305.726 1328.19M314.992 1333.93L309.829 1344.23M343.847 1324.81L353.466 1321.77M343.847 1324.81L349.01 1314.51M343.847 1324.81L353.113 1330.55" stroke="url(#paint88_linear_9_21)" stroke-width="3.75" stroke-linecap="round"/>
<path d="M335.52 1302.43L333.079 1313.21M333.079 1313.21L325.758 1345.54M333.079 1313.21L327.637 1303.09M333.079 1313.21L342.183 1307.16M325.758 1345.54L323.317 1356.32M325.758 1345.54L316.654 1351.59M325.758 1345.54L331.201 1355.66" stroke="url(#paint89_linear_9_21)" stroke-width="3.75" stroke-linecap="round"/>
</g>
</g>
<g clip-path="url(#clip17_9_21)">
<path d="M86.4019 1317.86L94.08 1361.49M94.08 1361.49L95.9995 1372.4M94.08 1361.49L102.88 1368.07M94.08 1361.49L88.1591 1371.27M94.2423 1318.99L88.3214 1328.77L79.5213 1322.19" stroke="url(#paint90_linear_9_21)" stroke-width="3.75" stroke-linecap="round"/>
<path d="M67.5542 1336.11L77.0132 1339.72M77.0132 1339.72L105.39 1350.54M77.0132 1339.72L72.3524 1329.13M77.0132 1339.72L67.4854 1344.9M105.39 1350.54L114.849 1354.15M105.39 1350.54L114.918 1345.36M105.39 1350.54L110.051 1361.13" stroke="url(#paint91_linear_9_21)" stroke-width="3.75" stroke-linecap="round"/>
<path d="M110.049 1326.88L102.509 1334.18M102.509 1334.18L79.8912 1356.08M102.509 1334.18L103.237 1322.42M102.509 1334.18L113.091 1334.99M79.8912 1356.08L72.3518 1363.38M79.8912 1356.08L69.3096 1355.27M79.8912 1356.08L79.1637 1367.84" stroke="url(#paint92_linear_9_21)" stroke-width="3.75" stroke-linecap="round"/>
</g>
<mask id="mask17_9_21" style="mask-type:luminance" maskUnits="userSpaceOnUse" x="110" y="1499" width="74" height="83">
<path d="M124.605 1581.2L183.462 1564.44L169.462 1499.2L110.605 1515.96L124.605 1581.2Z" fill="white"/>
</mask>
<g mask="url(#mask17_9_21)">
<path d="M152.867 1567.38L143.534 1523.89M143.534 1523.89L141.201 1513.02M143.534 1523.89L134.427 1517.83M143.534 1523.89L149.141 1513.64M144.927 1566.76L150.534 1556.51L159.641 1562.57" stroke="url(#paint93_linear_9_21)" stroke-width="3.75" stroke-linecap="round"/>
<path d="M171.188 1547.74L161.526 1544.73M161.526 1544.73L132.54 1535.68M161.526 1544.73L166.609 1555.1M161.526 1544.73L170.935 1538.88M132.54 1535.68L122.878 1532.66M132.54 1535.68L123.131 1541.52M132.54 1535.68L127.457 1525.3" stroke="url(#paint94_linear_9_21)" stroke-width="3.75" stroke-linecap="round"/>
<path d="M128.713 1559.84L136.041 1551.98M136.041 1551.98L158.027 1528.42M136.041 1551.98L135.739 1563.89M136.041 1551.98L125.351 1551.86M158.027 1528.42L165.356 1520.56M158.027 1528.42L168.718 1528.54M158.027 1528.42L158.329 1516.51" stroke="url(#paint95_linear_9_21)" stroke-width="3.75" stroke-linecap="round"/>
</g>
<g clip-path="url(#clip18_9_21)">
<path d="M268 1515.66L282.735 1473.57M282.735 1473.57L286.418 1463.05M282.735 1473.57L278.458 1462.75M282.735 1473.57L292.537 1468.62M261.882 1510.09L271.684 1505.14L275.961 1515.96" stroke="url(#paint96_linear_9_21)" stroke-width="3.75" stroke-linecap="round"/>
<path d="M292.927 1510.98L286.64 1502.33M286.64 1502.33L267.779 1476.38M286.64 1502.33L285.442 1514.18M286.64 1502.33L297.267 1503.45M267.779 1476.38L261.492 1467.73M267.779 1476.38L257.151 1475.26M267.779 1476.38L268.976 1464.53" stroke="url(#paint97_linear_9_21)" stroke-width="3.75" stroke-linecap="round"/>
<path d="M252.284 1494.03L262.255 1492.16M262.255 1492.16L292.166 1486.54M262.255 1492.16L255.904 1501.87M262.255 1492.16L253.649 1485.26M292.166 1486.54L302.137 1484.67M292.166 1486.54L300.771 1493.44M292.166 1486.54L298.517 1476.84" stroke="url(#paint98_linear_9_21)" stroke-width="3.75" stroke-linecap="round"/>
</g>
<mask id="mask18_9_21" style="mask-type:luminance" maskUnits="userSpaceOnUse" x="31" y="1576" width="81" height="89">
<path d="M87.6993 1664.42L111.153 1601.88L55.3851 1576.89L31.9314 1639.43L87.6993 1664.42Z" fill="white"/>
</mask>
<g mask="url(#mask18_9_21)">
<path d="M94.7788 1631.07L57.6002 1614.41M57.6002 1614.41L48.3055 1610.24M57.6002 1614.41L47.6975 1619.1M57.6002 1614.41L53.5609 1603.47M89.5234 1637.85L85.4841 1626.9L95.3868 1622.21" stroke="url(#paint99_linear_9_21)" stroke-width="3.75" stroke-linecap="round"/>
<path d="M91.6223 1603.29L83.5897 1610.24M83.5897 1610.24L59.4921 1631.07M83.5897 1610.24L94.1854 1611.64M83.5897 1610.24L85.043 1598.42M59.4921 1631.07L51.4596 1638.02M59.4921 1631.07L58.0389 1642.9M59.4921 1631.07L48.8965 1629.67" stroke="url(#paint100_linear_9_21)" stroke-width="3.75" stroke-linecap="round"/>
<path d="M74.6966 1648.43L73.4345 1637.32M73.4345 1637.32L69.6483 1603.99M73.4345 1637.32L81.884 1644.45M73.4345 1637.32L66.8782 1646.86M69.6483 1603.99L68.3862 1592.88M69.6483 1603.99L76.2047 1594.45M69.6483 1603.99L61.1987 1596.86" stroke="url(#paint101_linear_9_21)" stroke-width="3.75" stroke-linecap="round"/>
</g>
<mask id="mask19_9_21" style="mask-type:luminance" maskUnits="userSpaceOnUse" x="28" y="1422" width="80" height="88">
<path d="M84.0928 1509.93L107.546 1447.38L51.7786 1422.39L28.3249 1484.93L84.0928 1509.93Z" fill="white"/>
</mask>
<g mask="url(#mask19_9_21)">
<path d="M91.1722 1476.57L53.9937 1459.91M53.9937 1459.91L44.699 1455.75M53.9937 1459.91L44.0909 1464.6M53.9937 1459.91L49.9544 1448.97M85.9169 1483.35L81.8776 1472.41L91.7803 1467.71" stroke="url(#paint102_linear_9_21)" stroke-width="3.75" stroke-linecap="round"/>
<path d="M88.0158 1448.8L79.9832 1455.74M79.9832 1455.74L55.8856 1476.58M79.9832 1455.74L90.5789 1457.15M79.9832 1455.74L81.4365 1443.92M55.8856 1476.58L47.8531 1483.52M55.8856 1476.58L54.4324 1488.4M55.8856 1476.58L45.29 1475.17" stroke="url(#paint103_linear_9_21)" stroke-width="3.75" stroke-linecap="round"/>
<path d="M71.0901 1493.93L69.828 1482.82M69.828 1482.82L66.0418 1449.49M69.828 1482.82L78.2775 1489.95M69.828 1482.82L63.2717 1492.36M66.0418 1449.49L64.7797 1438.38M66.0418 1449.49L72.5982 1439.96M66.0418 1449.49L57.5922 1442.36" stroke="url(#paint104_linear_9_21)" stroke-width="3.75" stroke-linecap="round"/>
</g>
<g clip-path="url(#clip19_9_21)">
<path d="M288.247 1640.62L266.646 1603.14M266.646 1603.14L261.245 1593.77M266.646 1603.14L256.209 1600.75M266.646 1603.14L268.982 1591.47M280.511 1642.91L282.847 1631.25L293.283 1633.64" stroke="url(#paint105_linear_9_21)" stroke-width="3.75" stroke-linecap="round"/>
<path d="M299.931 1615.52L289.857 1616.19M289.857 1616.19L259.634 1618.2M289.857 1616.19L297.727 1624.09M289.857 1616.19L297.098 1607.29M259.634 1618.2L249.559 1618.86M259.634 1618.2L252.392 1627.1M259.634 1618.2L251.763 1610.29" stroke="url(#paint106_linear_9_21)" stroke-width="3.75" stroke-linecap="round"/>
<path d="M263.061 1642.29L267.735 1632.25M267.735 1632.25L281.757 1602.13M267.735 1632.25L270.93 1643.55M267.735 1632.25L257.529 1636.01M281.757 1602.13L286.431 1592.1M281.757 1602.13L291.964 1598.37M281.757 1602.13L278.562 1590.84" stroke="url(#paint107_linear_9_21)" stroke-width="3.75" stroke-linecap="round"/>
</g>
</g>
<defs>
<linearGradient id="paint0_linear_9_21" x1="206.907" y1="110.154" x2="235.22" y2="146.795" gradientUnits="userSpaceOnUse">
<stop stop-color="#003049"/>
</linearGradient>
<linearGradient id="paint1_linear_9_21" x1="205.617" y1="108.092" x2="236.891" y2="148.565" gradientUnits="userSpaceOnUse">
<stop stop-color="#003049"/>
</linearGradient>
<linearGradient id="paint2_linear_9_21" x1="212.236" y1="118.675" x2="228.319" y2="139.489" gradientUnits="userSpaceOnUse">
<stop stop-color="#003049"/>
</linearGradient>
<linearGradient id="paint3_linear_9_21" x1="63.3615" y1="50.7285" x2="25.5383" y2="87.5494" gradientUnits="userSpaceOnUse">
<stop stop-color="#003049"/>
</linearGradient>
<linearGradient id="paint4_linear_9_21" x1="58.4373" y1="56.6519" x2="31.5901" y2="82.7876" gradientUnits="userSpaceOnUse">
<stop stop-color="#003049"/>
</linearGradient>
<linearGradient id="paint5_linear_9_21" x1="58.4365" y1="56.6509" x2="31.5893" y2="82.7866" gradientUnits="userSpaceOnUse">
<stop stop-color="#003049"/>
</linearGradient>
<linearGradient id="paint6_linear_9_21" x1="301.81" y1="49.4651" x2="345.031" y2="50.4034" gradientUnits="userSpaceOnUse">
<stop stop-color="#003049"/>
</linearGradient>
<linearGradient id="paint7_linear_9_21" x1="299.552" y1="49.4048" x2="347.292" y2="50.4412" gradientUnits="userSpaceOnUse">
<stop stop-color="#003049"/>
</linearGradient>
<linearGradient id="paint8_linear_9_21" x1="311.144" y1="49.7167" x2="335.696" y2="50.2497" gradientUnits="userSpaceOnUse">
<stop stop-color="#003049"/>
</linearGradient>
<linearGradient id="paint9_linear_9_21" x1="148.795" y1="11.8547" x2="160.551" y2="65.9268" gradientUnits="userSpaceOnUse">
<stop stop-color="#003049"/>
</linearGradient>
<linearGradient id="paint10_linear_9_21" x1="150.189" y1="19.7694" x2="158.533" y2="58.1502" gradientUnits="userSpaceOnUse">
<stop stop-color="#003049"/>
</linearGradient>
<linearGradient id="paint11_linear_9_21" x1="150.188" y1="19.7697" x2="158.531" y2="58.1505" gradientUnits="userSpaceOnUse">
<stop stop-color="#003049"/>
</linearGradient>
<linearGradient id="paint12_linear_9_21" x1="159.128" y1="274.035" x2="120.849" y2="251.222" gradientUnits="userSpaceOnUse">
<stop stop-color="#003049"/>
</linearGradient>
<linearGradient id="paint13_linear_9_21" x1="161.02" y1="275.41" x2="118.737" y2="250.211" gradientUnits="userSpaceOnUse">
<stop stop-color="#003049"/>
</linearGradient>
<linearGradient id="paint14_linear_9_21" x1="151.313" y1="268.349" x2="129.568" y2="255.39" gradientUnits="userSpaceOnUse">
<stop stop-color="#003049"/>
</linearGradient>
<linearGradient id="paint15_linear_9_21" x1="313.563" y1="268.284" x2="334.973" y2="216.923" gradientUnits="userSpaceOnUse">
<stop stop-color="#003049"/>
</linearGradient>
<linearGradient id="paint16_linear_9_21" x1="316.235" y1="260.649" x2="331.432" y2="224.193" gradientUnits="userSpaceOnUse">
<stop stop-color="#003049"/>
</linearGradient>
<linearGradient id="paint17_linear_9_21" x1="316.236" y1="260.65" x2="331.433" y2="224.194" gradientUnits="userSpaceOnUse">
<stop stop-color="#003049"/>
</linearGradient>
<linearGradient id="paint18_linear_9_21" x1="89.9957" y1="371.227" x2="47.8575" y2="385.046" gradientUnits="userSpaceOnUse">
<stop stop-color="#003049"/>
</linearGradient>
<linearGradient id="paint19_linear_9_21" x1="92.137" y1="370.32" x2="45.5924" y2="385.584" gradientUnits="userSpaceOnUse">
<stop stop-color="#003049"/>
</linearGradient>
<linearGradient id="paint20_linear_9_21" x1="81.1455" y1="374.975" x2="57.208" y2="382.826" gradientUnits="userSpaceOnUse">
<stop stop-color="#003049"/>
</linearGradient>
<linearGradient id="paint21_linear_9_21" x1="82.424" y1="178.151" x2="40.2858" y2="191.97" gradientUnits="userSpaceOnUse">
<stop stop-color="#003049"/>
</linearGradient>
<linearGradient id="paint22_linear_9_21" x1="84.5653" y1="177.243" x2="38.0207" y2="192.507" gradientUnits="userSpaceOnUse">
<stop stop-color="#003049"/>
</linearGradient>
<linearGradient id="paint23_linear_9_21" x1="73.5738" y1="181.899" x2="49.6363" y2="189.749" gradientUnits="userSpaceOnUse">
<stop stop-color="#003049"/>
</linearGradient>
<linearGradient id="paint24_linear_9_21" x1="246.131" y1="341.057" x2="214.539" y2="297.538" gradientUnits="userSpaceOnUse">
<stop stop-color="#003049"/>
</linearGradient>
<linearGradient id="paint25_linear_9_21" x1="242.212" y1="334.259" x2="219.788" y2="303.368" gradientUnits="userSpaceOnUse">
<stop stop-color="#003049"/>
</linearGradient>
<linearGradient id="paint26_linear_9_21" x1="242.213" y1="334.258" x2="219.789" y2="303.368" gradientUnits="userSpaceOnUse">
<stop stop-color="#003049"/>
</linearGradient>
<linearGradient id="paint27_linear_9_21" x1="195.514" y1="521.406" x2="223.827" y2="558.047" gradientUnits="userSpaceOnUse">
<stop stop-color="#003049"/>
</linearGradient>
<linearGradient id="paint28_linear_9_21" x1="194.224" y1="519.344" x2="225.498" y2="559.817" gradientUnits="userSpaceOnUse">
<stop stop-color="#003049"/>
</linearGradient>
<linearGradient id="paint29_linear_9_21" x1="200.842" y1="529.927" x2="216.926" y2="550.742" gradientUnits="userSpaceOnUse">
<stop stop-color="#003049"/>
</linearGradient>
<linearGradient id="paint30_linear_9_21" x1="272.362" y1="415.735" x2="234.538" y2="452.556" gradientUnits="userSpaceOnUse">
<stop stop-color="#003049"/>
</linearGradient>
<linearGradient id="paint31_linear_9_21" x1="267.437" y1="421.659" x2="240.59" y2="447.794" gradientUnits="userSpaceOnUse">
<stop stop-color="#003049"/>
</linearGradient>
<linearGradient id="paint32_linear_9_21" x1="267.436" y1="421.658" x2="240.589" y2="447.794" gradientUnits="userSpaceOnUse">
<stop stop-color="#003049"/>
</linearGradient>
<linearGradient id="paint33_linear_9_21" x1="311.81" y1="494.062" x2="355.031" y2="495" gradientUnits="userSpaceOnUse">
<stop stop-color="#003049"/>
</linearGradient>
<linearGradient id="paint34_linear_9_21" x1="309.552" y1="494.002" x2="357.292" y2="495.038" gradientUnits="userSpaceOnUse">
<stop stop-color="#003049"/>
</linearGradient>
<linearGradient id="paint35_linear_9_21" x1="321.144" y1="494.314" x2="345.696" y2="494.847" gradientUnits="userSpaceOnUse">
<stop stop-color="#003049"/>
</linearGradient>
<linearGradient id="paint36_linear_9_21" x1="90.4019" y1="483.127" x2="102.157" y2="537.2" gradientUnits="userSpaceOnUse">
<stop stop-color="#003049"/>
</linearGradient>
<linearGradient id="paint37_linear_9_21" x1="91.7954" y1="491.042" x2="100.139" y2="529.423" gradientUnits="userSpaceOnUse">
<stop stop-color="#003049"/>
</linearGradient>
<linearGradient id="paint38_linear_9_21" x1="91.7941" y1="491.042" x2="100.138" y2="529.423" gradientUnits="userSpaceOnUse">
<stop stop-color="#003049"/>
</linearGradient>
<linearGradient id="paint39_linear_9_21" x1="169.128" y1="718.632" x2="130.849" y2="695.818" gradientUnits="userSpaceOnUse">
<stop stop-color="#003049"/>
</linearGradient>
<linearGradient id="paint40_linear_9_21" x1="171.02" y1="720.007" x2="128.737" y2="694.808" gradientUnits="userSpaceOnUse">
<stop stop-color="#003049"/>
</linearGradient>
<linearGradient id="paint41_linear_9_21" x1="161.313" y1="712.946" x2="139.568" y2="699.986" gradientUnits="userSpaceOnUse">
<stop stop-color="#003049"/>
</linearGradient>
<linearGradient id="paint42_linear_9_21" x1="272" y1="680.928" x2="293.41" y2="629.567" gradientUnits="userSpaceOnUse">
<stop stop-color="#003049"/>
</linearGradient>
<linearGradient id="paint43_linear_9_21" x1="274.673" y1="673.293" x2="289.87" y2="636.837" gradientUnits="userSpaceOnUse">
<stop stop-color="#003049"/>
</linearGradient>
<linearGradient id="paint44_linear_9_21" x1="274.674" y1="673.293" x2="289.871" y2="636.837" gradientUnits="userSpaceOnUse">
<stop stop-color="#003049"/>
</linearGradient>
<linearGradient id="paint45_linear_9_21" x1="96.0305" y1="777.245" x2="53.8923" y2="791.064" gradientUnits="userSpaceOnUse">
<stop stop-color="#003049"/>
</linearGradient>
<linearGradient id="paint46_linear_9_21" x1="98.1718" y1="776.338" x2="51.6272" y2="791.602" gradientUnits="userSpaceOnUse">
<stop stop-color="#003049"/>
</linearGradient>
<linearGradient id="paint47_linear_9_21" x1="87.1803" y1="780.993" x2="63.2428" y2="788.844" gradientUnits="userSpaceOnUse">
<stop stop-color="#003049"/>
</linearGradient>
<linearGradient id="paint48_linear_9_21" x1="92.424" y1="622.748" x2="50.2858" y2="636.567" gradientUnits="userSpaceOnUse">
<stop stop-color="#003049"/>
</linearGradient>
<linearGradient id="paint49_linear_9_21" x1="94.5653" y1="621.84" x2="48.0207" y2="637.104" gradientUnits="userSpaceOnUse">
<stop stop-color="#003049"/>
</linearGradient>
<linearGradient id="paint50_linear_9_21" x1="83.5738" y1="626.496" x2="59.6363" y2="634.346" gradientUnits="userSpaceOnUse">
<stop stop-color="#003049"/>
</linearGradient>
<linearGradient id="paint51_linear_9_21" x1="292.247" y1="805.889" x2="260.655" y2="762.369" gradientUnits="userSpaceOnUse">
<stop stop-color="#003049"/>
</linearGradient>
<linearGradient id="paint52_linear_9_21" x1="288.328" y1="799.09" x2="265.904" y2="768.2" gradientUnits="userSpaceOnUse">
<stop stop-color="#003049"/>
</linearGradient>
<linearGradient id="paint53_linear_9_21" x1="288.329" y1="799.09" x2="265.905" y2="768.199" gradientUnits="userSpaceOnUse">
<stop stop-color="#003049"/>
</linearGradient>
<linearGradient id="paint54_linear_9_21" x1="202.907" y1="944.885" x2="231.22" y2="981.525" gradientUnits="userSpaceOnUse">
<stop stop-color="#003049"/>
</linearGradient>
<linearGradient id="paint55_linear_9_21" x1="201.617" y1="942.823" x2="232.891" y2="983.295" gradientUnits="userSpaceOnUse">
<stop stop-color="#003049"/>
</linearGradient>
<linearGradient id="paint56_linear_9_21" x1="208.236" y1="953.406" x2="224.319" y2="974.22" gradientUnits="userSpaceOnUse">
<stop stop-color="#003049"/>
</linearGradient>
<linearGradient id="paint57_linear_9_21" x1="59.3615" y1="885.459" x2="21.5383" y2="922.28" gradientUnits="userSpaceOnUse">
<stop stop-color="#003049"/>
</linearGradient>
<linearGradient id="paint58_linear_9_21" x1="54.4373" y1="891.383" x2="27.5901" y2="917.518" gradientUnits="userSpaceOnUse">
<stop stop-color="#003049"/>
</linearGradient>
<linearGradient id="paint59_linear_9_21" x1="54.4365" y1="891.382" x2="27.5893" y2="917.517" gradientUnits="userSpaceOnUse">
<stop stop-color="#003049"/>
</linearGradient>
<linearGradient id="paint60_linear_9_21" x1="297.81" y1="884.196" x2="341.031" y2="885.134" gradientUnits="userSpaceOnUse">
<stop stop-color="#003049"/>
</linearGradient>
<linearGradient id="paint61_linear_9_21" x1="295.552" y1="884.135" x2="343.292" y2="885.172" gradientUnits="userSpaceOnUse">
<stop stop-color="#003049"/>
</linearGradient>
<linearGradient id="paint62_linear_9_21" x1="307.144" y1="884.447" x2="331.696" y2="884.98" gradientUnits="userSpaceOnUse">
<stop stop-color="#003049"/>
</linearGradient>
<linearGradient id="paint63_linear_9_21" x1="144.795" y1="846.585" x2="156.551" y2="900.658" gradientUnits="userSpaceOnUse">
<stop stop-color="#003049"/>
</linearGradient>
<linearGradient id="paint64_linear_9_21" x1="146.189" y1="854.5" x2="154.533" y2="892.881" gradientUnits="userSpaceOnUse">
<stop stop-color="#003049"/>
</linearGradient>
<linearGradient id="paint65_linear_9_21" x1="146.188" y1="854.5" x2="154.531" y2="892.881" gradientUnits="userSpaceOnUse">
<stop stop-color="#003049"/>
</linearGradient>
<linearGradient id="paint66_linear_9_21" x1="155.128" y1="1108.77" x2="116.849" y2="1085.95" gradientUnits="userSpaceOnUse">
<stop stop-color="#003049"/>
</linearGradient>
<linearGradient id="paint67_linear_9_21" x1="157.02" y1="1110.14" x2="114.737" y2="1084.94" gradientUnits="userSpaceOnUse">
<stop stop-color="#003049"/>
</linearGradient>
<linearGradient id="paint68_linear_9_21" x1="147.313" y1="1103.08" x2="125.568" y2="1090.12" gradientUnits="userSpaceOnUse">
<stop stop-color="#003049"/>
</linearGradient>
<linearGradient id="paint69_linear_9_21" x1="309.563" y1="1103.01" x2="330.973" y2="1051.65" gradientUnits="userSpaceOnUse">
<stop stop-color="#003049"/>
</linearGradient>
<linearGradient id="paint70_linear_9_21" x1="312.235" y1="1095.38" x2="327.432" y2="1058.92" gradientUnits="userSpaceOnUse">
<stop stop-color="#003049"/>
</linearGradient>
<linearGradient id="paint71_linear_9_21" x1="312.236" y1="1095.38" x2="327.433" y2="1058.92" gradientUnits="userSpaceOnUse">
<stop stop-color="#003049"/>
</linearGradient>
<linearGradient id="paint72_linear_9_21" x1="85.9957" y1="1205.96" x2="43.8575" y2="1219.78" gradientUnits="userSpaceOnUse">
<stop stop-color="#003049"/>
</linearGradient>
<linearGradient id="paint73_linear_9_21" x1="88.137" y1="1205.05" x2="41.5924" y2="1220.31" gradientUnits="userSpaceOnUse">
<stop stop-color="#003049"/>
</linearGradient>
<linearGradient id="paint74_linear_9_21" x1="77.1455" y1="1209.71" x2="53.208" y2="1217.56" gradientUnits="userSpaceOnUse">
<stop stop-color="#003049"/>
</linearGradient>
<linearGradient id="paint75_linear_9_21" x1="78.424" y1="1012.88" x2="36.2858" y2="1026.7" gradientUnits="userSpaceOnUse">
<stop stop-color="#003049"/>
</linearGradient>
<linearGradient id="paint76_linear_9_21" x1="80.5653" y1="1011.97" x2="34.0207" y2="1027.24" gradientUnits="userSpaceOnUse">
<stop stop-color="#003049"/>
</linearGradient>
<linearGradient id="paint77_linear_9_21" x1="69.5738" y1="1016.63" x2="45.6363" y2="1024.48" gradientUnits="userSpaceOnUse">
<stop stop-color="#003049"/>
</linearGradient>
<linearGradient id="paint78_linear_9_21" x1="242.131" y1="1175.79" x2="210.539" y2="1132.27" gradientUnits="userSpaceOnUse">
<stop stop-color="#003049"/>
</linearGradient>
<linearGradient id="paint79_linear_9_21" x1="238.212" y1="1168.99" x2="215.788" y2="1138.1" gradientUnits="userSpaceOnUse">
<stop stop-color="#003049"/>
</linearGradient>
<linearGradient id="paint80_linear_9_21" x1="238.213" y1="1168.99" x2="215.789" y2="1138.1" gradientUnits="userSpaceOnUse">
<stop stop-color="#003049"/>
</linearGradient>
<linearGradient id="paint81_linear_9_21" x1="191.514" y1="1356.14" x2="219.827" y2="1392.78" gradientUnits="userSpaceOnUse">
<stop stop-color="#003049"/>
</linearGradient>
<linearGradient id="paint82_linear_9_21" x1="190.224" y1="1354.08" x2="221.498" y2="1394.55" gradientUnits="userSpaceOnUse">
<stop stop-color="#003049"/>
</linearGradient>
<linearGradient id="paint83_linear_9_21" x1="196.842" y1="1364.66" x2="212.926" y2="1385.47" gradientUnits="userSpaceOnUse">
<stop stop-color="#003049"/>
</linearGradient>
<linearGradient id="paint84_linear_9_21" x1="268.362" y1="1250.47" x2="230.538" y2="1287.29" gradientUnits="userSpaceOnUse">
<stop stop-color="#003049"/>
</linearGradient>
<linearGradient id="paint85_linear_9_21" x1="263.437" y1="1256.39" x2="236.59" y2="1282.53" gradientUnits="userSpaceOnUse">
<stop stop-color="#003049"/>
</linearGradient>
<linearGradient id="paint86_linear_9_21" x1="263.436" y1="1256.39" x2="236.589" y2="1282.52" gradientUnits="userSpaceOnUse">
<stop stop-color="#003049"/>
</linearGradient>
<linearGradient id="paint87_linear_9_21" x1="307.81" y1="1328.79" x2="351.031" y2="1329.73" gradientUnits="userSpaceOnUse">
<stop stop-color="#003049"/>
</linearGradient>
<linearGradient id="paint88_linear_9_21" x1="305.552" y1="1328.73" x2="353.292" y2="1329.77" gradientUnits="userSpaceOnUse">
<stop stop-color="#003049"/>
</linearGradient>
<linearGradient id="paint89_linear_9_21" x1="317.144" y1="1329.04" x2="341.696" y2="1329.58" gradientUnits="userSpaceOnUse">
<stop stop-color="#003049"/>
</linearGradient>
<linearGradient id="paint90_linear_9_21" x1="86.4019" y1="1317.86" x2="98.157" y2="1371.93" gradientUnits="userSpaceOnUse">
<stop stop-color="#003049"/>
</linearGradient>
<linearGradient id="paint91_linear_9_21" x1="87.7954" y1="1325.77" x2="96.1392" y2="1364.15" gradientUnits="userSpaceOnUse">
<stop stop-color="#003049"/>
</linearGradient>
<linearGradient id="paint92_linear_9_21" x1="87.7941" y1="1325.77" x2="96.138" y2="1364.15" gradientUnits="userSpaceOnUse">
<stop stop-color="#003049"/>
</linearGradient>
<linearGradient id="paint93_linear_9_21" x1="165.128" y1="1553.36" x2="126.849" y2="1530.55" gradientUnits="userSpaceOnUse">
<stop stop-color="#003049"/>
</linearGradient>
<linearGradient id="paint94_linear_9_21" x1="167.02" y1="1554.74" x2="124.737" y2="1529.54" gradientUnits="userSpaceOnUse">
<stop stop-color="#003049"/>
</linearGradient>
<linearGradient id="paint95_linear_9_21" x1="157.313" y1="1547.68" x2="135.568" y2="1534.72" gradientUnits="userSpaceOnUse">
<stop stop-color="#003049"/>
</linearGradient>
<linearGradient id="paint96_linear_9_21" x1="268" y1="1515.66" x2="289.41" y2="1464.3" gradientUnits="userSpaceOnUse">
<stop stop-color="#003049"/>
</linearGradient>
<linearGradient id="paint97_linear_9_21" x1="270.673" y1="1508.02" x2="285.87" y2="1471.57" gradientUnits="userSpaceOnUse">
<stop stop-color="#003049"/>
</linearGradient>
<linearGradient id="paint98_linear_9_21" x1="270.674" y1="1508.02" x2="285.871" y2="1471.57" gradientUnits="userSpaceOnUse">
<stop stop-color="#003049"/>
</linearGradient>
<linearGradient id="paint99_linear_9_21" x1="92.0305" y1="1611.98" x2="49.8923" y2="1625.79" gradientUnits="userSpaceOnUse">
<stop stop-color="#003049"/>
</linearGradient>
<linearGradient id="paint100_linear_9_21" x1="94.1718" y1="1611.07" x2="47.6272" y2="1626.33" gradientUnits="userSpaceOnUse">
<stop stop-color="#003049"/>
</linearGradient>
<linearGradient id="paint101_linear_9_21" x1="83.1803" y1="1615.72" x2="59.2428" y2="1623.57" gradientUnits="userSpaceOnUse">
<stop stop-color="#003049"/>
</linearGradient>
<linearGradient id="paint102_linear_9_21" x1="88.424" y1="1457.48" x2="46.2858" y2="1471.3" gradientUnits="userSpaceOnUse">
<stop stop-color="#003049"/>
</linearGradient>
<linearGradient id="paint103_linear_9_21" x1="90.5653" y1="1456.57" x2="44.0207" y2="1471.84" gradientUnits="userSpaceOnUse">
<stop stop-color="#003049"/>
</linearGradient>
<linearGradient id="paint104_linear_9_21" x1="79.5738" y1="1461.23" x2="55.6363" y2="1469.08" gradientUnits="userSpaceOnUse">
<stop stop-color="#003049"/>
</linearGradient>
<linearGradient id="paint105_linear_9_21" x1="288.247" y1="1640.62" x2="256.655" y2="1597.1" gradientUnits="userSpaceOnUse">
<stop stop-color="#003049"/>
</linearGradient>
<linearGradient id="paint106_linear_9_21" x1="284.328" y1="1633.82" x2="261.904" y2="1602.93" gradientUnits="userSpaceOnUse">
<stop stop-color="#003049"/>
</linearGradient>
<linearGradient id="paint107_linear_9_21" x1="284.329" y1="1633.82" x2="261.905" y2="1602.93" gradientUnits="userSpaceOnUse">
<stop stop-color="#003049"/>
</linearGradient>
<clipPath id="clip0_9_21">
<rect width="63.1697" height="63.6953" fill="white" transform="matrix(0.697549 0.716538 -0.639343 0.768922 44.7231 24.0154)"/>
</clipPath>
<clipPath id="clip1_9_21">
<rect width="95.583" height="86.0059" fill="white" transform="matrix(0.0217039 -0.999764 0.999641 0.0268101 279.394 96.672)"/>
</clipPath>
<clipPath id="clip2_9_21">
<rect width="60.2597" height="66.455" fill="white" transform="matrix(0.977175 -0.212435 0.173308 0.984868 118.393 12.8012)"/>
</clipPath>
<clipPath id="clip3_9_21">
<rect width="61.0146" height="66.8865" fill="white" transform="matrix(-0.923015 -0.384764 0.330434 -0.943829 339.88 285.283)"/>
</clipPath>
<clipPath id="clip4_9_21">
<rect width="63.1329" height="64.8908" fill="white" transform="matrix(-0.809255 0.587458 -0.499328 -0.866413 274.376 327.199)"/>
</clipPath>
<clipPath id="clip5_9_21">
<rect width="63.1697" height="63.6953" fill="white" transform="matrix(0.697549 0.716538 -0.639343 0.768922 253.723 389.022)"/>
</clipPath>
<clipPath id="clip6_9_21">
<rect width="95.583" height="86.0059" fill="white" transform="matrix(0.0217039 -0.999764 0.999641 0.0268101 289.394 541.269)"/>
</clipPath>
<clipPath id="clip7_9_21">
<rect width="60.2597" height="66.455" fill="white" transform="matrix(0.977175 -0.212435 0.173308 0.984868 60 484.074)"/>
</clipPath>
<clipPath id="clip8_9_21">
<rect width="61.0146" height="66.8865" fill="white" transform="matrix(-0.923015 -0.384764 0.330434 -0.943829 298.317 697.926)"/>
</clipPath>
<clipPath id="clip9_9_21">
<rect width="63.1329" height="64.8908" fill="white" transform="matrix(-0.809255 0.587458 -0.499328 -0.866413 320.492 792.03)"/>
</clipPath>
<clipPath id="clip10_9_21">
<rect width="63.1697" height="63.6953" fill="white" transform="matrix(0.697549 0.716538 -0.639343 0.768922 40.7231 858.746)"/>
</clipPath>
<clipPath id="clip11_9_21">
<rect width="95.583" height="86.0059" fill="white" transform="matrix(0.0217039 -0.999764 0.999641 0.0268101 275.394 931.403)"/>
</clipPath>
<clipPath id="clip12_9_21">
<rect width="60.2597" height="66.455" fill="white" transform="matrix(0.977175 -0.212435 0.173308 0.984868 114.393 847.532)"/>
</clipPath>
<clipPath id="clip13_9_21">
<rect width="61.0146" height="66.8865" fill="white" transform="matrix(-0.923015 -0.384764 0.330434 -0.943829 335.88 1120.01)"/>
</clipPath>
<clipPath id="clip14_9_21">
<rect width="63.1329" height="64.8908" fill="white" transform="matrix(-0.809255 0.587458 -0.499328 -0.866413 270.376 1161.93)"/>
</clipPath>
<clipPath id="clip15_9_21">
<rect width="63.1697" height="63.6953" fill="white" transform="matrix(0.697549 0.716538 -0.639343 0.768922 249.723 1223.75)"/>
</clipPath>
<clipPath id="clip16_9_21">
<rect width="95.583" height="86.0059" fill="white" transform="matrix(0.0217039 -0.999764 0.999641 0.0268101 285.394 1376)"/>
</clipPath>
<clipPath id="clip17_9_21">
<rect width="60.2597" height="66.455" fill="white" transform="matrix(0.977175 -0.212435 0.173308 0.984868 56 1318.8)"/>
</clipPath>
<clipPath id="clip18_9_21">
<rect width="61.0146" height="66.8865" fill="white" transform="matrix(-0.923015 -0.384764 0.330434 -0.943829 294.317 1532.66)"/>
</clipPath>
<clipPath id="clip19_9_21">
<rect width="63.1329" height="64.8908" fill="white" transform="matrix(-0.809255 0.587458 -0.499328 -0.866413 316.492 1626.76)"/>
</clipPath>
</defs>
</svg>
